Coordinates
version=1
nRows=8
nColumns=63
inDegrees=yes

Units are S.I. units (second, meters, Newtons, ...)
If the header above contains a line with 'inDegrees', this indicates whether rotational values are in degrees (yes) or radians (no).

endheader
time	pelvis_tilt	pelvis_list	pelvis_rotation	pelvis_tx	pelvis_ty	pelvis_tz	hip_flexion_r	hip_adduction_r	hip_rotation_r	knee_angle_r	knee_angle_r_beta	ankle_angle_r	subtalar_angle_r	mtp_angle_r	hip_flexion_l	hip_adduction_l	hip_rotation_l	knee_angle_l	knee_angle_l_beta	ankle_angle_l	subtalar_angle_l	mtp_angle_l	L5_S1_Flex_Ext	L5_S1_Lat_Bending	L5_S1_axial_rotation	L4_L5_Flex_Ext	L4_L5_Lat_Bending	L4_L5_axial_rotation	L3_L4_Flex_Ext	L3_L4_Lat_Bending	L3_L4_axial_rotation	L2_L3_Flex_Ext	L2_L3_Lat_Bending	L2_L3_axial_rotation	L1_L2_Flex_Ext	L1_L2_Lat_Bending	L1_L2_axial_rotation	L1_T12_Flex_Ext	L1_T12_Lat_Bending	L1_T12_axial_rotation	Abs_r3	Abs_r2	Abs_r1	Abs_t1	Abs_t2	neck_flexion	neck_bending	neck_rotation	arm_flex_r	arm_add_r	arm_rot_r	elbow_flex_r	pro_sup_r	wrist_flex_r	wrist_dev_r	arm_flex_l	arm_add_l	arm_rot_l	elbow_flex_l	pro_sup_l	wrist_flex_l	wrist_dev_l
      0.00000000	      5.78175789	     -4.44649335	    104.66972315	      0.10196969	      1.05501064	      0.15501139	      7.66733597	      2.01469082	     -5.80566357	      5.14873333	      0.08986235	     30.50661393	    -12.01842680	      0.00000000	      8.02238072	     -1.02976264	     26.67741391	      3.43020343	      0.05986834	     29.22809728	    -12.51075517	      0.00000000	      0.19535070	      0.25013051	     -1.67122479	      0.36278579	      0.33267357	     -1.77567634	      0.32094167	      0.60816731	     -1.77567634	      0.22326632	      0.60816731	     -1.46232169	      0.18140266	      0.51006613	     -1.35787015	      0.11162339	      0.38745215	     -1.25341860	      1.39537054	      2.82952632	     -9.29485094	      0.00000000	      0.00000000	     26.74274093	     -2.76150880	     -9.63325467	     16.95414611	     -3.81295628	     63.41077439	     31.88741304	      2.42151029	    -15.17278022	     17.67193527	     18.42695074	      2.05907451	     56.45777545	     35.12573846	     80.44129841	     -4.39574892	      9.44802262
      0.01694915	      6.02845176	     -4.22590417	    104.16376270	      0.10216121	      1.05544417	      0.15330269	      7.75912854	      2.25061242	     -7.01891054	      5.45740166	      0.09524963	     32.63924004	     -8.72111943	      0.00000000	      7.56637475	     -1.44996951	     26.93740069	      3.14766705	      0.05493715	     29.04779912	    -14.00374597	      0.00000000	      0.19105329	      0.29046749	     -1.60182486	      0.35480507	      0.38632177	     -1.70193891	      0.31388146	      0.70624267	     -1.70193891	      0.21835481	      0.70624267	     -1.40159675	      0.17741209	      0.59232131	     -1.30148270	      0.10916785	      0.44993415	     -1.20136864	      1.36467457	      3.28582639	     -8.90886930	      0.00000000	      0.00000000	     26.84975006	     -2.07666125	     -8.07422916	     16.90853678	     -4.15429650	     63.24484349	     32.38424069	      2.65488154	    -15.40830497	     15.59860491	     18.22370213	      2.23121652	     57.00973724	     34.62269782	     79.28020770	     -4.02120975	      8.69709522
      0.03389831	      6.11291759	     -4.13568197	    104.18496593	      0.10185253	      1.05552928	      0.15221722	      7.71920698	      2.36954302	     -6.88269192	      5.43703473	      0.09489416	     33.40747233	     -8.72943757	      0.00000000	      7.42519145	     -1.55520604	     26.75054713	      3.10147362	      0.05413093	     29.27058544	    -14.19205711	      0.00000000	      0.19280916	      0.29827270	     -1.62555961	      0.35806589	      0.39670270	     -1.72715709	      0.31676617	      0.72522025	     -1.72715709	      0.22036159	      0.72522025	     -1.42236466	      0.17904259	      0.60823770	     -1.32076719	      0.11017115	      0.46202442	     -1.21916971	      1.37721655	      3.37412048	     -9.04087491	      0.00000000	      0.00000000	     26.87166083	     -2.02202937	     -7.94275406	     17.03154850	     -4.18554057	     63.13450714	     32.38826909	      2.75245177	    -15.40488990	     15.30605137	     17.96181742	      2.22575389	     57.08488084	     34.50303138	     79.28934255	     -3.99471746	      8.63751934
      0.05084746	      6.15119752	     -3.91059433	    103.20100257	      0.10243605	      1.05585311	      0.15100861	      7.89434541	      2.38790842	     -8.23525782	      6.32151138	      0.11033119	     34.64565929	     -5.46572741	      0.00000000	      6.91687100	     -1.83315765	     25.02808425	      2.76803895	      0.04831139	     29.81651918	    -13.15245928	      0.00000000	      0.16777367	      0.32865631	     -1.47003612	      0.31157249	      0.43711289	     -1.56191338	      0.27563537	      0.79909495	     -1.56191338	      0.19174853	      0.79909495	     -1.28628161	      0.15579463	      0.67019594	     -1.19440435	      0.09586588	      0.50908862	     -1.10252709	      1.19839056	      3.71782589	     -8.17589991	      0.00000000	      0.00000000	     26.86872120	     -0.93892835	     -4.93806641	     16.60367631	     -4.26123912	     61.77019079	     32.84639508	      3.79198264	    -16.15056209	     12.97218688	     17.95258250	      2.32462621	     58.08041136	     33.97844408	     78.57770554	     -4.50028884	      6.85773669
      0.06779661	      6.06744192	     -3.80537981	    102.92228001	      0.10218394	      1.05581510	      0.15027233	      7.96192256	      2.13784194	    -10.77761850	      6.95906295	      0.12145856	     35.63550025	     -1.89325091	      0.00000000	      6.64201041	     -1.77712678	     25.77895523	      2.53735261	      0.04428516	     29.64981088	    -14.78202818	      0.00000000	      0.15176824	      0.32960824	     -1.45649692	      0.28184880	      0.43837896	     -1.54752798	      0.24934004	      0.80140948	     -1.54752798	      0.17345592	      0.80140948	     -1.27443481	      0.14093199	      0.67213713	     -1.18340375	      0.08672037	      0.51056317	     -1.09237269	      1.08406535	      3.72859436	     -8.10059895	      0.00000000	      0.00000000	     26.77825358	     -0.65726813	     -3.73221980	     16.46225979	     -4.12431537	     60.81986388	     32.90892663	      4.82001115	    -16.57113804	     12.67809974	     17.52926243	      2.30321196	     57.03962557	     34.08312158	     80.47103579	     -4.59998431	      6.52770153
      0.08474576	      5.91947316	     -3.72690789	    102.86355162	      0.10177159	      1.05572744	      0.14976610	      7.95148029	      1.84861599	    -12.62010899	      7.48169866	      0.13058028	     36.09071581	      0.23511978	      0.00000000	      6.46577562	     -1.63416028	     25.61339336	      2.37743310	      0.04149404	     29.86926644	    -14.72789361	      0.00000000	      0.13546443	      0.31966379	     -1.45061597	      0.25157099	      0.42515284	     -1.54127947	      0.22255451	      0.77723053	     -1.54127947	      0.15482229	      0.77723053	     -1.26928898	      0.12579227	      0.65185839	     -1.17862548	      0.07740437	      0.49515921	     -1.08796198	      0.96760886	      3.61610069	     -8.06789085	      0.00000000	      0.00000000	     26.63513688	     -0.54907993	     -2.90321321	     16.19405386	     -3.94599390	     59.43789552	     32.96152998	      6.26806900	    -17.08454376	     12.62484570	     17.52660210	      2.18198024	     57.52843248	     34.09112021	     81.17064739	     -5.45177830	      5.74956856
      0.10169492	      5.70992277	     -3.66610964	    102.67997420	      0.10149071	      1.05568956	      0.14929205	      7.90373764	      1.54579856	    -13.76536170	      7.95405174	      0.13882439	     36.26254429	      1.50761759	      0.00000000	      6.27682004	     -1.43379619	     25.31985019	      2.20978067	      0.03856795	     30.05055816	    -14.59419159	      0.00000000	      0.11815949	      0.30226571	     -1.41334336	      0.21943398	      0.40201339	     -1.50167732	      0.19412422	      0.73492884	     -1.50167732	      0.13504448	      0.73492884	     -1.23667544	      0.10972290	      0.61638023	     -1.14834148	      0.06751633	      0.46820958	     -1.06000752	      0.84400140	      3.41929014	     -7.86059175	      0.00000000	      0.00000000	     26.38883105	     -0.52407183	     -2.28720830	     16.04980841	     -3.79083090	     58.49840668	     32.81143243	      7.87525076	    -16.92937312	     12.90731039	     17.54699948	      2.05915342	     57.71783109	     34.23146825	     82.72801943	     -6.26167974	      5.31069047
      0.11864407	      5.46814665	     -3.66807817	    102.41246952	      0.10148043	      1.05569473	      0.14882935	      7.88465164	      1.26038833	    -14.34363808	      8.33165592	      0.14541483	     36.28475441	      2.17319036	      0.00000000	      6.15127178	     -1.20338176	     24.66539612	      2.05847136	      0.03592710	     30.29972177	    -14.03454853	      0.00000000	      0.10718819	      0.27643939	     -1.34154453	      0.19905918	      0.36766439	     -1.42539107	      0.17609948	      0.67213473	     -1.42539107	      0.12250538	      0.67213473	     -1.17385147	      0.09953495	      0.56371520	     -1.09000493	      0.06124733	      0.42820461	     -1.00615840	      0.76563451	      3.12713765	     -7.46126823	      0.00000000	      0.00000000	     26.07190625	     -0.66933742	     -2.08045488	     16.05585441	     -3.73326087	     58.31272565	     32.67245327	      8.62046927	    -16.81421567	     13.12267740	     17.66177043	      1.89339090	     57.95851627	     34.51125181	     84.38003208	     -6.97349630	      5.20776341
